<svg xmlns="http://www.w3.org/2000/svg" version="1.1" xmlns:xlink="http://www.w3.org/1999/xlink" xmlns:svgjs="http://svgjs.com/svgjs" width="512" height="512" x="0" y="0" viewBox="0 0 480.012 480.012" style="enable-background:new 0 0 512 512" xml:space="preserve" class=""><g><path d="M371.906 257.8v-34.015c0-3.907-3.681-6.781-7.467-5.815-122.126 31.171-155.606-34.375-252.07-5.234a6.008 6.008 0 0 0-4.263 5.748v33.902c0 3.942 3.736 6.797 7.548 5.793 97.994-25.804 131.457 39.035 251.849 5.409a6.018 6.018 0 0 0 4.403-5.788z" fill="#000000" data-original="#000000" class=""></path><path d="M112.369 275.735a6.008 6.008 0 0 0-4.263 5.748v26.732c0 15.644 14.749 27.071 29.93 23.25 76.952-19.31 110.117 39.543 216.66 8.16 10.13-2.98 17.21-12.44 17.21-23.02v-29.821c0-3.907-3.681-6.781-7.467-5.815-122.126 31.172-155.607-34.374-252.07-5.234zM367.503 200.587a6.017 6.017 0 0 0 4.403-5.787v-24.414c0-15.687-14.783-27.157-29.97-23.25-98.587 25.416-129.543-35.105-216.91-8.05-10.12 3.14-16.92 12.36-16.92 22.94v27.359c0 3.942 3.737 6.797 7.548 5.793 98.025-25.815 131.426 39.045 251.849 5.409zM479.618 232.93c-1.365-4.202-5.882-6.498-10.08-5.137l-10.032 3.26v-10.548a8 8 0 0 0-16 0v10.548l-10.032-3.26a8 8 0 0 0-4.943 15.217l10.031 3.26-6.199 8.533a7.998 7.998 0 0 0 1.77 11.174 7.997 7.997 0 0 0 11.174-1.77l6.2-8.534 6.2 8.534a7.997 7.997 0 0 0 11.174 1.77 8 8 0 0 0 1.77-11.174l-6.199-8.533 10.031-3.26a8 8 0 0 0 5.135-10.08zM41.185 267.506c6.451 0 10.332-7.382 6.465-12.703l-6.199-8.533 10.031-3.26a8 8 0 0 0 5.137-10.08c-1.365-4.202-5.882-6.498-10.08-5.137l-10.032 3.26v-10.548a8 8 0 0 0-16 0v10.548l-10.032-3.26a8 8 0 0 0-4.943 15.217l10.031 3.26-6.199 8.533c-3.868 5.323.016 12.703 6.465 12.703a7.991 7.991 0 0 0 6.479-3.299l6.2-8.534 6.2 8.534a7.982 7.982 0 0 0 6.477 3.299zM112.409 59.238l10.031 3.26-6.199 8.533c-3.868 5.323.016 12.703 6.465 12.703a7.991 7.991 0 0 0 6.479-3.299l6.2-8.534 6.2 8.534a7.99 7.99 0 0 0 6.479 3.299c6.451 0 10.332-7.382 6.465-12.703l-6.199-8.533 10.031-3.26a8.001 8.001 0 0 0 5.136-10.081c-1.365-4.201-5.879-6.497-10.081-5.136l-10.03 3.259V36.733a8 8 0 0 0-16 0v10.548l-10.032-3.26a7.998 7.998 0 0 0-10.08 5.137 7.998 7.998 0 0 0 5.135 10.08zM365.915 412.082l-10.03 3.259v-10.547a8 8 0 0 0-16 0v10.548l-10.032-3.26a8 8 0 0 0-4.943 15.217l10.031 3.26-6.199 8.533c-3.868 5.323.016 12.703 6.465 12.703a7.991 7.991 0 0 0 6.479-3.299l6.2-8.534 6.2 8.534a7.99 7.99 0 0 0 6.479 3.299c6.451 0 10.332-7.382 6.465-12.703l-6.199-8.533 10.031-3.26a8.001 8.001 0 0 0-4.947-15.217zM75.88 118.966l-10.032 3.26v-10.548a8 8 0 0 0-16 0v10.547l-10.03-3.259a8.001 8.001 0 0 0-4.945 15.217l10.031 3.26-6.199 8.533c-3.868 5.323.016 12.703 6.465 12.703a7.991 7.991 0 0 0 6.479-3.299l6.2-8.534 6.2 8.534a7.99 7.99 0 0 0 6.479 3.299c6.451 0 10.332-7.382 6.465-12.703l-6.199-8.533 10.031-3.26a8 8 0 0 0 5.137-10.08 8.007 8.007 0 0 0-10.082-5.137zM445.236 339.531l-10.032 3.26v-10.548a8 8 0 0 0-16 0v10.547l-10.03-3.259a8.001 8.001 0 0 0-4.945 15.217l10.031 3.26-6.199 8.533c-3.868 5.323.016 12.703 6.465 12.703a7.991 7.991 0 0 0 6.479-3.299l6.2-8.534 6.2 8.534a7.99 7.99 0 0 0 6.479 3.299c6.451 0 10.332-7.382 6.465-12.703l-6.199-8.533 10.031-3.26a8 8 0 0 0 5.137-10.08 8.007 8.007 0 0 0-10.082-5.137zM367.698 44.021l-10.03 3.259V36.733a8 8 0 0 0-16 0v10.548l-10.032-3.26a8 8 0 0 0-4.943 15.217l10.031 3.26-6.199 8.533c-3.868 5.323.016 12.703 6.465 12.703a7.991 7.991 0 0 0 6.479-3.299l6.2-8.534 6.2 8.534a7.99 7.99 0 0 0 6.479 3.299c6.451 0 10.332-7.382 6.465-12.703l-6.199-8.533 10.031-3.26a8.001 8.001 0 0 0 5.136-10.081c-1.367-4.201-5.881-6.497-10.083-5.136zM155.198 412.082l-10.03 3.259v-10.547a8 8 0 0 0-16 0v10.548l-10.032-3.26a8 8 0 0 0-4.943 15.217l10.031 3.26-6.199 8.533c-3.868 5.323.016 12.703 6.465 12.703a7.991 7.991 0 0 0 6.479-3.299l6.2-8.534 6.2 8.534a7.99 7.99 0 0 0 6.479 3.299c6.451 0 10.332-7.382 6.465-12.703l-6.199-8.533 10.031-3.26a8.001 8.001 0 0 0-4.947-15.217zM404.229 134.183l10.031 3.26-6.199 8.533c-3.868 5.323.016 12.703 6.465 12.703a7.991 7.991 0 0 0 6.479-3.299l6.2-8.534 6.2 8.534a7.99 7.99 0 0 0 6.479 3.299c6.451 0 10.332-7.382 6.465-12.703l-6.199-8.533 10.031-3.26a8 8 0 0 0-4.943-15.217l-10.032 3.26v-10.548a8 8 0 0 0-16 0v10.547l-10.03-3.259a7.998 7.998 0 0 0-10.081 5.136 7.998 7.998 0 0 0 5.134 10.081zM75.88 339.531l-10.032 3.26v-10.548a8 8 0 0 0-16 0v10.547l-10.03-3.259a8.001 8.001 0 0 0-4.945 15.217l10.031 3.26-6.199 8.533c-3.868 5.323.016 12.703 6.465 12.703a7.991 7.991 0 0 0 6.479-3.299l6.2-8.534 6.2 8.534a7.99 7.99 0 0 0 6.479 3.299c6.451 0 10.332-7.382 6.465-12.703l-6.199-8.533 10.031-3.26a8 8 0 0 0 5.137-10.08 8.007 8.007 0 0 0-10.082-5.137zM258.038 15.294l-10.032 3.26V8.005a8 8 0 0 0-16 0v10.548l-10.032-3.26a8 8 0 0 0-4.943 15.217l10.031 3.26-6.199 8.533c-3.868 5.323.016 12.703 6.465 12.703a7.991 7.991 0 0 0 6.479-3.299l6.2-8.534 6.2 8.534a7.99 7.99 0 0 0 6.479 3.299c6.451 0 10.332-7.382 6.465-12.703l-6.199-8.533 10.031-3.26a8 8 0 0 0 5.137-10.08c-1.365-4.201-5.882-6.498-10.082-5.136zM258.038 440.294l-10.032 3.26v-10.548a8 8 0 0 0-16 0v10.548l-10.032-3.26a8 8 0 1 0-4.943 15.217l10.031 3.26-6.199 8.533c-3.868 5.323.016 12.703 6.465 12.703a7.991 7.991 0 0 0 6.479-3.299l6.2-8.534 6.2 8.534a7.99 7.99 0 0 0 6.479 3.299c6.451 0 10.332-7.382 6.465-12.703l-6.199-8.533 10.031-3.26a8 8 0 1 0-4.945-15.217z" fill="#000000" data-original="#000000" class=""></path></g></svg>