<svg width="57" height="77" viewBox="0 0 57 77" fill="none" xmlns="http://www.w3.org/2000/svg">
<path d="M22.7216 55.4183C22.1362 55.4183 21.6239 55.2014 21.1849 54.7676C20.7458 54.3338 20.5263 53.8277 20.5263 53.2493C20.5263 52.7432 20.5263 52.2371 20.5263 51.731C20.5263 51.2249 20.5263 50.7188 20.5263 50.2127C20.8922 47.5376 21.6971 45.1516 22.9411 43.0549C24.2583 40.8859 25.7585 38.8977 27.4415 37.0901C29.1978 35.2826 30.9175 33.6197 32.6005 32.1014C34.2836 30.5108 35.7106 28.9202 36.8814 27.3296C38.0523 25.739 38.6743 24.1484 38.7475 22.5577C38.967 20.6779 38.6011 19.1235 37.6498 17.8944C36.7717 16.593 35.5276 15.6169 33.9177 14.9662C32.381 14.2432 30.7345 13.8817 28.9783 13.8817C25.7585 13.8817 23.1607 14.677 21.1849 16.2676C19.2823 17.7859 17.9651 20.1357 17.2333 23.3169C16.9406 24.1122 16.5381 24.7268 16.0259 25.1606C15.5136 25.5944 14.8184 25.8113 13.9403 25.8113H2.52462C1.86602 25.8113 1.28061 25.5582 0.768363 25.0521C0.256121 24.546 0 23.8953 0 23.1C0.0731774 20.208 0.768363 17.3883 2.08556 14.6408C3.40275 11.8934 5.34195 9.43521 7.90316 7.2662C10.4644 5.02488 13.5744 3.25352 17.2333 1.95211C20.8922 0.650704 25.1364 0 29.9662 0C35.2349 0 39.589 0.650704 43.0283 1.95211C46.5409 3.25352 49.3216 4.95258 51.3706 7.04929C53.4927 9.07371 54.9929 11.2789 55.871 13.6648C56.7491 15.9784 57.115 18.1836 56.9686 20.2803C56.8955 22.9554 56.31 25.3775 55.2124 27.5465C54.1879 29.6432 52.9073 31.5953 51.3706 33.4028C49.907 35.2103 48.3337 36.9817 46.6506 38.7169C45.0407 40.3798 43.5772 42.0789 42.26 43.8141C41.016 45.5493 40.1012 47.3568 39.5158 49.2366C39.3695 49.815 39.2231 50.3934 39.0768 50.9718C39.0036 51.4779 38.9304 52.0202 38.8572 52.5986C38.4913 53.5385 38.0889 54.2615 37.6498 54.7676C37.2107 55.2014 36.5521 55.4183 35.674 55.4183H22.7216ZM22.7216 77C21.9166 77 21.258 76.7469 20.7458 76.2408C20.2336 75.7347 19.9774 75.084 19.9774 74.2887V63.4437C19.9774 62.7207 20.2336 62.1061 20.7458 61.6C21.258 61.0216 21.9166 60.7324 22.7216 60.7324H35.0154C35.7472 60.7324 36.3692 61.0216 36.8814 61.6C37.4669 62.1061 37.7596 62.7207 37.7596 63.4437V74.2887C37.7596 75.084 37.4669 75.7347 36.8814 76.2408C36.3692 76.7469 35.7472 77 35.0154 77H22.7216Z" fill="#1A1A1A"/>
<path d="M22.7216 55.4183C22.1362 55.4183 21.6239 55.2014 21.1849 54.7676C20.7458 54.3338 20.5263 53.8277 20.5263 53.2493C20.5263 52.7432 20.5263 52.2371 20.5263 51.731C20.5263 51.2249 20.5263 50.7188 20.5263 50.2127C20.8922 47.5376 21.6971 45.1516 22.9411 43.0549C24.2583 40.8859 25.7585 38.8977 27.4415 37.0901C29.1978 35.2826 30.9175 33.6197 32.6005 32.1014C34.2836 30.5108 35.7106 28.9202 36.8814 27.3296C38.0523 25.739 38.6743 24.1484 38.7475 22.5577C38.967 20.6779 38.6011 19.1235 37.6498 17.8944C36.7717 16.593 35.5276 15.6169 33.9177 14.9662C32.381 14.2432 30.7345 13.8817 28.9783 13.8817C25.7585 13.8817 23.1607 14.677 21.1849 16.2676C19.2823 17.7859 17.9651 20.1357 17.2333 23.3169C16.9406 24.1122 16.5381 24.7268 16.0259 25.1606C15.5136 25.5944 14.8184 25.8113 13.9403 25.8113H2.52462C1.86602 25.8113 1.28061 25.5582 0.768363 25.0521C0.256121 24.546 0 23.8953 0 23.1C0.0731774 20.208 0.768363 17.3883 2.08556 14.6408C3.40275 11.8934 5.34195 9.43521 7.90316 7.2662C10.4644 5.02488 13.5744 3.25352 17.2333 1.95211C20.8922 0.650704 25.1364 0 29.9662 0C35.2349 0 39.589 0.650704 43.0283 1.95211C46.5409 3.25352 49.3216 4.95258 51.3706 7.04929C53.4927 9.07371 54.9929 11.2789 55.871 13.6648C56.7491 15.9784 57.115 18.1836 56.9686 20.2803C56.8955 22.9554 56.31 25.3775 55.2124 27.5465C54.1879 29.6432 52.9073 31.5953 51.3706 33.4028C49.907 35.2103 48.3337 36.9817 46.6506 38.7169C45.0407 40.3798 43.5772 42.0789 42.26 43.8141C41.016 45.5493 40.1012 47.3568 39.5158 49.2366C39.3695 49.815 39.2231 50.3934 39.0768 50.9718C39.0036 51.4779 38.9304 52.0202 38.8572 52.5986C38.4913 53.5385 38.0889 54.2615 37.6498 54.7676C37.2107 55.2014 36.5521 55.4183 35.674 55.4183H22.7216ZM22.7216 77C21.9166 77 21.258 76.7469 20.7458 76.2408C20.2336 75.7347 19.9774 75.084 19.9774 74.2887V63.4437C19.9774 62.7207 20.2336 62.1061 20.7458 61.6C21.258 61.0216 21.9166 60.7324 22.7216 60.7324H35.0154C35.7472 60.7324 36.3692 61.0216 36.8814 61.6C37.4669 62.1061 37.7596 62.7207 37.7596 63.4437V74.2887C37.7596 75.084 37.4669 75.7347 36.8814 76.2408C36.3692 76.7469 35.7472 77 35.0154 77H22.7216Z" fill="url(#paint0_linear_56_353)" fill-opacity="0.9"/>
<defs>
<linearGradient id="paint0_linear_56_353" x1="28.5" y1="0" x2="28.5" y2="77" gradientUnits="userSpaceOnUse">
<stop stop-color="#232323" stop-opacity="0"/>
<stop offset="1" stop-color="#232323"/>
</linearGradient>
</defs>
</svg>
