<svg width="147" height="119" viewBox="0 0 147 119" fill="none" xmlns="http://www.w3.org/2000/svg">
<path d="M95.8954 15.3334H49.4194C48.4294 15.3334 47.6194 16.1434 47.6194 17.1334V23.5234H38.2234C37.2694 23.5234 36.4774 24.2794 36.4234 25.2334C36.3874 26.0974 35.5774 45.9154 47.9974 52.4854C49.5994 61.9534 56.5294 69.6394 65.6014 72.3034C65.7274 73.0414 65.8174 73.7794 65.8174 74.5534C65.8174 77.7934 64.5214 80.9794 62.2714 83.2834L59.4454 86.1634C58.6862 86.9518 58.2606 88.0028 58.2574 89.0974V91.4734C55.142 91.5984 52.1958 92.9235 50.0352 95.1713C47.8746 97.4191 46.6671 100.416 46.6654 103.533C46.6654 104.523 47.4754 105.333 48.4654 105.333H96.8494C97.8394 105.333 98.6494 104.523 98.6494 103.533C98.6494 97.0354 93.4834 91.7434 87.0574 91.4734V89.0974C87.0574 87.9994 86.6434 86.9554 85.8694 86.1634L83.0614 83.2654C80.7664 80.9481 79.4846 77.8148 79.4974 74.5534C79.4974 73.7794 79.5874 73.0414 79.7314 72.3034C88.8034 69.6394 95.7154 61.9534 97.3354 52.4854C109.755 45.8974 108.945 26.0974 108.891 25.2334C108.837 24.2794 108.045 23.5234 107.091 23.5234H97.7134V17.1334C97.6954 16.1434 96.8854 15.3334 95.8954 15.3334ZM40.0234 27.1234H47.6194V47.9134C41.0134 42.5674 40.1134 31.4074 40.0234 27.1234ZM94.8514 101.733H50.4454C50.8584 99.8435 51.9043 98.1514 53.41 96.937C54.9157 95.7226 56.791 95.0588 58.7254 95.0554H86.5714C90.6214 95.0554 94.0234 97.9174 94.8514 101.733ZM80.4694 85.7854L83.2774 88.6654C83.3854 88.7734 83.4574 88.9354 83.4574 89.0974V91.4554H61.8574V89.0974C61.8574 88.9354 61.9114 88.7914 62.0374 88.6654L64.8634 85.7854C67.805 82.7882 69.4475 78.7529 69.4354 74.5534C69.4354 74.0674 69.3814 73.5814 69.3454 73.0954C70.4434 73.2394 71.5414 73.3474 72.6754 73.3474C73.8094 73.3474 74.9074 73.2394 75.9874 73.0954C75.9514 73.5814 75.8974 74.0674 75.8974 74.5534C75.8794 78.8014 77.5174 82.7794 80.4694 85.7854ZM94.0954 48.3094C94.0954 60.1354 84.4834 69.7474 72.6574 69.7474C60.8314 69.7474 51.2194 60.1354 51.2194 48.3094V18.9334H94.0954V48.3094ZM105.291 27.1234C105.201 31.4074 104.301 42.5674 97.6954 47.9134V27.1234H105.291Z" fill="#4A4A4A"/>
</svg>
