<svg width="147" height="119" viewBox="0 0 147 119" fill="none" xmlns="http://www.w3.org/2000/svg">
<path d="M111.818 33.6981C111.446 31.4005 109.401 29.6858 107.043 29.6858H106.996C92.3357 29.8344 78.1978 34.9785 66.9641 44.1921C66.6156 40.1454 65.4423 36.2016 63.5022 32.5893C60.8535 27.6624 56.8689 23.5472 52.0013 20.6894C50.038 19.5348 47.5868 19.8549 46.0534 21.4667C38.7579 29.1142 34.8313 39.1051 35.0056 49.599C35.1682 59.7043 39.118 69.2151 46.1579 76.5197C45.4958 79.0117 44.9962 81.5494 44.6593 84.1329C44.5199 85.196 45.275 86.1677 46.367 86.3163C46.4484 86.3277 46.5413 86.3277 46.6226 86.3277C47.5985 86.3277 48.4465 85.619 48.5743 84.6359C48.9344 81.9495 49.4688 79.3204 50.1891 76.7712C50.2704 76.5997 50.3168 76.4282 50.3401 76.2453C57.4613 51.6795 80.4863 33.8468 107.066 33.5724H107.078C107.496 33.5724 107.891 33.9039 107.961 34.304C109.424 43.3919 109.471 52.6055 108.1 61.7048C108.077 61.7734 108.054 61.8419 108.042 61.9105C105.312 73.4447 97.6912 83.2984 87.1081 88.934C77.7796 93.9181 66.9176 95.2213 56.7295 92.6949C60.1681 90.4658 63.4674 88.0195 66.6156 85.3561C74.9218 78.3258 81.9036 70.0153 87.3636 60.6759C87.9096 59.75 87.5844 58.5612 86.6318 58.0239C85.6908 57.4866 84.4826 57.8067 83.9366 58.7441C75.9673 72.2901 64.571 83.6071 51.0255 91.5861C50.9674 91.609 50.9209 91.6433 50.8628 91.6776C46.5181 94.2267 41.9642 96.4215 37.2244 98.2505C36.2137 98.6392 35.7026 99.7709 36.1092 100.765C36.4112 101.531 37.1547 102 37.9447 102C38.1886 102 38.4326 101.954 38.6649 101.863C43.3582 100.057 47.8656 97.9076 52.1872 95.427C56.9967 97.0274 61.992 97.8276 66.9757 97.8276C74.5733 97.8276 82.136 95.9871 88.9436 92.3406C100.398 86.2363 108.693 75.6052 111.748 63.1565C111.818 62.9965 111.876 62.825 111.899 62.6421C113.397 53.0399 113.363 43.3004 111.818 33.6981ZM54.8359 57.4295C54.8126 55.349 54.7197 53.4171 54.5571 51.5652C54.1969 47.61 53.5115 43.449 52.466 38.8194C52.2337 37.7677 51.1765 37.1161 50.1077 37.3447C49.039 37.5733 48.3768 38.6136 48.6091 39.6653C49.6198 44.1235 50.282 48.1244 50.6189 51.9082C50.9442 55.5319 50.979 59.5214 50.7118 64.4254C49.4572 66.9174 48.3652 69.4895 47.459 72.1415C35.5632 58.1725 35.9698 37.6762 48.9112 24.1187C49.1668 23.8444 49.6082 23.8101 49.9683 24.0159C58.4372 28.977 63.4209 37.962 63.1072 47.61C60.0155 50.5957 57.2438 53.8861 54.8359 57.4295Z" fill="#4A4A4A"/>
</svg>
