<svg width="147" height="119" viewBox="0 0 147 119" fill="none" xmlns="http://www.w3.org/2000/svg">
<path d="M118.672 52.9467L109.011 50.9983C108.299 48.5811 107.329 46.2473 106.119 44.0371L111.579 35.8206C111.791 35.4994 111.886 35.1147 111.848 34.7315C111.81 34.3482 111.64 33.99 111.368 33.7172L102.293 24.6422C102.02 24.3703 101.662 24.2008 101.279 24.1625C100.896 24.1242 100.511 24.2193 100.19 24.4318L91.9733 29.891C89.763 28.681 87.4293 27.7117 85.0121 26.9999L83.0636 17.3435C82.9867 16.9655 82.7814 16.6258 82.4825 16.3818C82.1837 16.1379 81.8097 16.0047 81.424 16.005H68.5868C68.201 16.0047 67.827 16.1379 67.5282 16.3818C67.2294 16.6258 67.0241 16.9655 66.9471 17.3435L64.9986 26.9951C62.5815 27.7069 60.2477 28.6762 58.0375 29.8862L49.821 24.4271C49.4998 24.2144 49.1151 24.1191 48.7318 24.1574C48.3485 24.1958 47.9902 24.3653 47.7176 24.6374L38.6425 33.7124C38.3706 33.9852 38.2012 34.3434 38.1629 34.7267C38.1245 35.1099 38.2197 35.4946 38.4322 35.8158L43.8914 44.0323C42.6813 46.2426 41.7121 48.5763 41.0002 50.9935L31.3439 52.942C30.9659 53.0189 30.6261 53.2242 30.3822 53.5231C30.1382 53.8219 30.0051 54.1959 30.0054 54.5816V67.4188C30.0051 67.8046 30.1382 68.1786 30.3822 68.4774C30.6261 68.7762 30.9659 68.9815 31.3439 69.0585L40.9954 71.007C41.7073 73.4241 42.6766 75.7579 43.8866 77.9681L38.4274 86.1846C38.2149 86.5058 38.1198 86.8905 38.1581 87.2738C38.1964 87.657 38.3658 88.0153 38.6378 88.288L47.7128 97.3631C47.9855 97.6351 48.3437 97.8047 48.727 97.843C49.1103 97.8813 49.495 97.7861 49.8162 97.5734L58.0327 92.1142C60.2429 93.3243 62.5767 94.2935 64.9938 95.0054L66.9423 104.667C67.0193 105.044 67.2246 105.384 67.5234 105.628C67.8223 105.872 68.1962 106.005 68.582 106.005H81.4192C81.8049 106.005 82.1789 105.872 82.4778 105.628C82.7766 105.384 82.9819 105.044 83.0589 104.667L85.0073 95.0102C87.4245 94.2983 89.7583 93.329 91.9685 92.119L100.185 97.5782C100.506 97.7902 100.891 97.885 101.274 97.8467C101.657 97.8084 102.015 97.6393 102.288 97.3678L111.363 88.2928C111.635 88.02 111.805 87.6618 111.843 87.2786C111.881 86.8953 111.786 86.5106 111.574 86.1894L106.115 77.9729C107.325 75.7627 108.294 73.4289 109.006 71.0118L118.667 69.0633C119.045 68.9863 119.385 68.781 119.629 68.4822C119.873 68.1833 120.006 67.8094 120.005 67.4236V54.5864C120.006 54.2013 119.873 53.8279 119.63 53.5291C119.387 53.2304 119.049 53.0247 118.672 52.9467ZM116.664 66.045L107.338 67.9255C107.031 67.9874 106.748 68.1342 106.52 68.3495C106.293 68.5647 106.13 68.8395 106.051 69.1426C105.309 71.9647 104.183 74.6717 102.705 77.188C102.547 77.4582 102.468 77.7675 102.477 78.0806C102.486 78.3936 102.582 78.6979 102.756 78.9586L108.025 86.894L100.888 94.0311L92.9523 88.7622C92.6916 88.5887 92.3873 88.492 92.0743 88.483C91.7612 88.474 91.4519 88.5532 91.1817 88.7115C88.6654 90.1893 85.9584 91.3152 83.1363 92.0578C82.8332 92.1366 82.5583 92.2991 82.3431 92.5266C82.1279 92.7542 81.981 93.0376 81.9192 93.3447L80.0386 102.67H69.9559L68.0753 93.3447C68.0135 93.0376 67.8666 92.7542 67.6514 92.5266C67.4362 92.2991 67.1613 92.1366 66.8582 92.0578C64.0361 91.3152 61.3291 90.1893 58.8128 88.7115C58.5425 88.5536 58.2332 88.4745 57.9203 88.4835C57.6073 88.4925 57.303 88.589 57.0422 88.7622L49.1068 94.0311L41.9697 86.894L47.2386 78.9586C47.4121 78.6979 47.5089 78.3936 47.5178 78.0806C47.5268 77.7675 47.4476 77.4582 47.2893 77.188C45.8131 74.6714 44.6889 71.9645 43.9478 69.1426C43.869 68.8395 43.7065 68.5647 43.479 68.3495C43.2514 68.1342 42.968 67.9874 42.6609 67.9255L33.3354 66.045V55.9555L42.6609 54.0749C42.968 54.0131 43.2514 53.8662 43.479 53.651C43.7065 53.4358 43.869 53.1609 43.9478 52.8578C44.6889 50.036 45.8131 47.329 47.2893 44.8125C47.4476 44.5422 47.5268 44.2329 47.5178 43.9199C47.5089 43.6068 47.4121 43.3026 47.2386 43.0418L41.9697 35.1064L49.1068 27.9693L57.0422 33.2382C57.3028 33.412 57.6071 33.5088 57.9202 33.5178C58.2333 33.5268 58.5427 33.4474 58.8128 33.2889C61.3294 31.8128 64.0363 30.6885 66.8582 29.9474C67.1613 29.8686 67.4362 29.7062 67.6514 29.4786C67.8666 29.2511 68.0135 28.9676 68.0753 28.6606L69.9559 19.335H80.0501L81.9307 28.6606C81.9925 28.9676 82.1394 29.2511 82.3546 29.4786C82.5698 29.7062 82.8447 29.8686 83.1478 29.9474C85.9696 30.6885 88.6766 31.8128 91.1931 33.2889C91.4633 33.4474 91.7726 33.5268 92.0857 33.5178C92.3988 33.5088 92.7031 33.412 92.9638 33.2382L100.899 27.9693L108.036 35.1064L102.767 43.0418C102.594 43.3026 102.497 43.6068 102.488 43.9199C102.479 44.2329 102.558 44.5422 102.717 44.8125C104.194 47.3288 105.32 50.0357 106.063 52.8578C106.142 53.1609 106.304 53.4358 106.532 53.651C106.759 53.8662 107.043 54.0131 107.35 54.0749L116.675 55.9555L116.664 66.045Z" fill="#4A4A4A"/>
<path d="M75.0028 37.9392C70.4413 37.9392 65.9823 39.2919 62.1895 41.8261C58.3968 44.3603 55.4407 47.9623 53.6951 52.1766C51.9494 56.3909 51.4927 61.0282 52.3826 65.502C53.2725 69.9759 55.4691 74.0854 58.6946 77.3108C61.92 80.5363 66.0295 82.7329 70.5034 83.6228C74.9772 84.5127 79.6145 84.056 83.8288 82.3103C88.0431 80.5647 91.6451 77.6087 94.1793 73.8159C96.7136 70.0231 98.0662 65.5641 98.0662 61.0026C98.0591 54.888 95.627 49.0258 91.3033 44.7021C86.9796 40.3785 81.1174 37.9463 75.0028 37.9392ZM75.0028 80.7197C71.1032 80.7197 67.2911 79.5633 64.0486 77.3968C60.8061 75.2302 58.2789 72.1508 56.7866 68.548C55.2943 64.9452 54.9038 60.9807 55.6646 57.156C56.4254 53.3312 58.3032 49.818 61.0607 47.0605C63.8182 44.303 67.3315 42.4251 71.1562 41.6643C74.981 40.9035 78.9454 41.294 82.5482 42.7863C86.1511 44.2787 89.2305 46.8059 91.397 50.0483C93.5636 53.2908 94.7199 57.1029 94.7199 61.0026C94.7139 66.23 92.6346 71.2416 88.9382 74.938C85.2419 78.6343 80.2303 80.7136 75.0028 80.7197Z" fill="#4A4A4A"/>
<path d="M75.0028 44.955C71.8288 44.955 68.7262 45.8961 66.0872 47.6595C63.4481 49.4228 61.3913 51.9291 60.1766 54.8615C58.962 57.7938 58.6442 61.0205 59.2634 64.1334C59.8826 67.2464 61.411 70.1058 63.6553 72.3501C65.8997 74.5944 68.7591 76.1228 71.872 76.742C74.985 77.3612 78.2116 77.0434 81.144 75.8288C84.0763 74.6142 86.5826 72.5573 88.3459 69.9183C90.1093 67.2792 91.0505 64.1766 91.0505 61.0027C91.0467 56.7477 89.3547 52.6681 86.346 49.6594C83.3373 46.6507 79.2577 44.9588 75.0028 44.955ZM75.0028 73.7041C72.4907 73.7041 70.035 72.9592 67.9462 71.5635C65.8575 70.1679 64.2295 68.1842 63.2682 65.8633C62.3068 63.5424 62.0553 60.9886 62.5454 58.5247C63.0355 56.0609 64.2452 53.7977 66.0215 52.0214C67.7978 50.2451 70.061 49.0354 72.5249 48.5453C74.9887 48.0552 77.5425 48.3067 79.8634 49.2681C82.1843 50.2294 84.168 51.8574 85.5636 53.9461C86.9593 56.0349 87.7042 58.4905 87.7042 61.0027C87.7004 64.3701 86.361 67.5986 83.9799 69.9797C81.5987 72.3609 78.3702 73.7003 75.0028 73.7041Z" fill="#4A4A4A"/>
</svg>
