<svg width="30" height="30" viewBox="0 0 30 30" fill="none" xmlns="http://www.w3.org/2000/svg">
<path d="M18.3982 1.9045C18.4293 1.78788 18.4831 1.67853 18.5565 1.5827C18.6298 1.48687 18.7214 1.40645 18.8259 1.34604C18.9304 1.28562 19.0457 1.24639 19.1654 1.23059C19.285 1.21479 19.4066 1.22274 19.5232 1.25397C21.7414 1.83259 23.7652 2.99214 25.3862 4.61315C27.0072 6.23416 28.1667 8.25803 28.7453 10.4763C28.7765 10.5929 28.7845 10.7145 28.7687 10.8341C28.7529 10.9538 28.7136 11.0691 28.6532 11.1736C28.5928 11.2781 28.5124 11.3697 28.4166 11.4431C28.3207 11.5164 28.2114 11.5702 28.0948 11.6013C28.0174 11.6219 27.9376 11.6322 27.8575 11.6319C27.6552 11.632 27.4585 11.5653 27.2979 11.4422C27.1374 11.319 27.022 11.1463 26.9697 10.9508C26.473 9.04538 25.4771 7.30691 24.0848 5.91455C22.6925 4.52219 20.9541 3.52631 19.0487 3.02955C18.9321 2.99845 18.8228 2.94468 18.7269 2.87129C18.6311 2.79791 18.5507 2.70635 18.4903 2.60187C18.4299 2.49738 18.3906 2.38201 18.3748 2.26235C18.359 2.14269 18.367 2.02109 18.3982 1.9045ZM17.8242 7.9277C20.0513 8.5216 21.4778 9.94818 22.0717 12.1753C22.124 12.3708 22.2394 12.5435 22.3999 12.6667C22.5604 12.7899 22.7571 12.8566 22.9595 12.8565C23.0396 12.8568 23.1194 12.8465 23.1967 12.8258C23.3134 12.7948 23.4227 12.741 23.5185 12.6676C23.6144 12.5942 23.6948 12.5027 23.7552 12.3982C23.8156 12.2937 23.8548 12.1783 23.8706 12.0586C23.8864 11.939 23.8785 11.8174 23.8473 11.7008C23.0819 8.83692 21.1625 6.91745 18.2987 6.15212C18.1821 6.12096 18.0606 6.11307 17.9409 6.1289C17.8213 6.14473 17.7059 6.18397 17.6015 6.24438C17.3905 6.36638 17.2366 6.5672 17.1737 6.80265C17.1108 7.03811 17.144 7.28892 17.266 7.49991C17.388 7.71089 17.5888 7.86477 17.8242 7.9277ZM29.9836 22.7752C29.7213 24.7762 28.7394 26.6131 27.2213 27.9428C25.7033 29.2724 23.753 30.0037 21.735 30C9.75014 30 1.52638e-05 20.2496 1.52638e-05 8.26444C-0.00385074 6.24708 0.726789 4.2973 2.05546 2.77931C3.38412 1.26132 5.21995 0.27893 7.22 0.0156533C7.68042 -0.0402995 8.14655 0.0546378 8.54841 0.286207C8.95026 0.517777 9.26614 0.873477 9.4486 1.29989L12.6782 8.50935C12.8208 8.83573 12.8798 9.19251 12.8499 9.54743C12.82 9.90234 12.7021 10.2442 12.5068 10.5421C12.4871 10.5724 12.4656 10.6015 12.4425 10.6293L9.21748 14.4652C9.1979 14.505 9.18771 14.5487 9.18771 14.593C9.18771 14.6373 9.1979 14.6811 9.21748 14.7208C10.3899 17.1209 12.9063 19.619 15.34 20.7899C15.3806 20.8085 15.425 20.8173 15.4697 20.8157C15.5143 20.8141 15.5579 20.8021 15.5972 20.7808L19.3763 17.5663C19.4033 17.5429 19.4319 17.5214 19.462 17.5021C19.7586 17.3043 20.0997 17.1837 20.4547 17.1511C20.8096 17.1185 21.1671 17.1749 21.4947 17.3153L28.7254 20.5557C29.1461 20.7422 29.4956 21.0592 29.7222 21.4597C29.9488 21.8603 30.0404 22.3231 29.9836 22.7798V22.7752ZM28.1636 22.5487C28.1688 22.4847 28.1537 22.4207 28.1204 22.3657C28.0872 22.3108 28.0375 22.2677 27.9784 22.2425L20.7462 19.0021C20.7067 18.9869 20.6643 18.9803 20.6221 18.983C20.5798 18.9856 20.5386 18.9974 20.5013 19.0174L16.7237 22.2318C16.6961 22.2548 16.6671 22.2762 16.638 22.2961C16.3298 22.5016 15.9737 22.6237 15.6043 22.6505C15.2349 22.6774 14.8649 22.608 14.5303 22.4492C11.7201 21.0915 8.91901 18.3164 7.56134 15.5321C7.40165 15.1994 7.33057 14.8312 7.35497 14.463C7.37937 14.0948 7.49843 13.7391 7.70062 13.4305C7.72033 13.3998 7.74233 13.3706 7.76644 13.3432L10.99 9.50735C11.0084 9.46726 11.0179 9.42366 11.0179 9.37954C11.0179 9.33542 11.0084 9.29182 10.99 9.25173L7.76644 2.03614C7.74517 1.97823 7.70689 1.9281 7.65664 1.89232C7.60638 1.85654 7.54649 1.83677 7.4848 1.83562H7.4496C5.89286 2.04271 4.46471 2.80935 3.43184 3.99238C2.39896 5.17542 1.83198 6.69396 1.83677 8.26444C1.83677 19.2363 10.7634 28.1632 21.735 28.1632C23.3057 28.1679 24.8244 27.6007 26.0074 26.5675C27.1904 25.5343 27.9569 24.1057 28.1636 22.5487Z" fill="white"/>
</svg>
