<svg width="14" height="15" viewBox="0 0 14 15" fill="none" xmlns="http://www.w3.org/2000/svg">
<path fill-rule="evenodd" clip-rule="evenodd" d="M10.1173 0.752C8.0198 0.283147 5.84471 0.283147 3.74726 0.752L3.52126 0.802C2.93127 0.933907 2.3894 1.22679 1.95583 1.64811C1.52227 2.06943 1.214 2.6027 1.06526 3.18867C0.533587 5.28368 0.533587 7.47832 1.06526 9.57333C1.20711 10.1322 1.49419 10.6436 1.89741 11.0557C2.30063 11.4678 2.80564 11.766 3.36126 11.92L3.67126 13.7707C3.68115 13.8294 3.70662 13.8845 3.74501 13.9301C3.7834 13.9756 3.83331 14.0101 3.88954 14.0298C3.94577 14.0496 4.00626 14.0539 4.06472 14.0423C4.12318 14.0307 4.17746 14.0037 4.22192 13.964L6.04259 12.3353C7.40932 12.4187 8.78098 12.3094 10.1173 12.0107L10.3439 11.9607C10.9339 11.8288 11.4758 11.5359 11.9093 11.1146C12.3429 10.6932 12.6512 10.16 12.7999 9.574C13.3315 7.47898 13.3315 5.28436 12.7999 3.18933C12.6511 2.60328 12.3428 2.06995 11.9091 1.64863C11.4754 1.2273 10.9334 0.934464 10.3433 0.802666L10.1173 0.752ZM4.30992 3.13467C4.18602 3.11663 4.05968 3.14157 3.95192 3.20533H3.94259C3.69259 3.352 3.46726 3.53667 3.27526 3.754C3.11526 3.93867 3.02859 4.12533 3.00592 4.30533C2.99259 4.412 3.00192 4.52 3.03326 4.622L3.04526 4.62867C3.22526 5.15733 3.45992 5.666 3.74659 6.14467C4.11622 6.81699 4.57109 7.4388 5.09992 7.99467L5.11592 8.01733L5.14126 8.036L5.15659 8.054L5.17526 8.07C5.73307 8.60042 6.35634 9.05745 7.02992 9.43C7.79992 9.84933 8.26725 10.0473 8.54792 10.13V10.134C8.62992 10.1593 8.70459 10.1707 8.77992 10.1707C9.01895 10.153 9.24519 10.0558 9.42259 9.89467C9.63926 9.70267 9.82259 9.47667 9.96526 9.22533V9.22067C10.0993 8.96733 10.0539 8.72867 9.86059 8.56667C9.47225 8.22736 9.05234 7.92598 8.60659 7.66667C8.30792 7.50467 8.00459 7.60267 7.88192 7.76667L7.61992 8.09733C7.48526 8.26133 7.24126 8.23867 7.24126 8.23867L7.23459 8.24267C5.41392 7.778 4.92792 5.93467 4.92792 5.93467C4.92792 5.93467 4.90526 5.684 5.07392 5.556L5.40192 5.292C5.55926 5.164 5.66859 4.86133 5.49992 4.56267C5.24233 4.11651 4.94155 3.69672 4.60192 3.30933C4.52785 3.21816 4.42397 3.15607 4.30859 3.134L4.30992 3.13467ZM7.38592 2.33333C7.29752 2.33333 7.21273 2.36845 7.15022 2.43096C7.08771 2.49348 7.05259 2.57826 7.05259 2.66667C7.05259 2.75507 7.08771 2.83986 7.15022 2.90237C7.21273 2.96488 7.29752 3 7.38592 3C8.22926 3 8.92926 3.27533 9.48326 3.80333C9.76792 4.092 9.98992 4.434 10.1353 4.80867C10.2813 5.184 10.3479 5.58467 10.3306 5.986C10.3288 6.02977 10.3356 6.07348 10.3506 6.11463C10.3657 6.15577 10.3887 6.19355 10.4183 6.2258C10.4782 6.29094 10.5615 6.32962 10.6499 6.33333C10.7383 6.33705 10.8246 6.30549 10.8897 6.2456C10.9549 6.18571 10.9935 6.10241 10.9973 6.014C11.0179 5.52032 10.936 5.02772 10.7566 4.56733C10.5764 4.10476 10.3032 3.68408 9.95392 3.33133L9.94726 3.32467C9.25992 2.668 8.38992 2.33333 7.38592 2.33333ZM7.36326 3.42933C7.27485 3.42933 7.19006 3.46445 7.12755 3.52696C7.06504 3.58948 7.02992 3.67426 7.02992 3.76267C7.02992 3.85107 7.06504 3.93586 7.12755 3.99837C7.19006 4.06088 7.27485 4.096 7.36326 4.096H7.37459C7.98259 4.13933 8.42526 4.342 8.73526 4.67467C9.05326 5.01733 9.21792 5.44333 9.20526 5.97C9.20322 6.0584 9.23639 6.144 9.29747 6.20795C9.35854 6.2719 9.44252 6.30897 9.53092 6.311C9.61933 6.31303 9.70492 6.27986 9.76887 6.21879C9.83282 6.15772 9.86989 6.07374 9.87192 5.98533C9.88792 5.294 9.66526 4.69733 9.22392 4.22133V4.22C8.77259 3.736 8.15326 3.48 7.40792 3.43L7.39659 3.42867L7.36326 3.42933ZM7.35059 4.546C7.30598 4.54206 7.26103 4.54716 7.21844 4.56097C7.17584 4.57479 7.13646 4.59705 7.10266 4.62643C7.06886 4.6558 7.04132 4.69168 7.02169 4.73193C7.00206 4.77218 6.99074 4.81598 6.98841 4.8607C6.98608 4.90542 6.99278 4.95015 7.00812 4.99223C7.02346 5.0343 7.04712 5.07285 7.07769 5.10558C7.10826 5.1383 7.14511 5.16454 7.18604 5.18271C7.22697 5.20088 7.27115 5.21061 7.31592 5.21133C7.59459 5.226 7.77259 5.31 7.88459 5.42267C7.99726 5.536 8.08126 5.718 8.09659 6.00267C8.09742 6.0474 8.10725 6.09151 8.12549 6.13236C8.14373 6.17321 8.17001 6.20998 8.20276 6.24046C8.23551 6.27094 8.27406 6.29452 8.31611 6.30979C8.35817 6.32506 8.40286 6.3317 8.44754 6.32933C8.49222 6.32696 8.53596 6.31562 8.57616 6.29598C8.61636 6.27634 8.6522 6.24882 8.68154 6.21504C8.71087 6.18126 8.73311 6.14191 8.74692 6.09936C8.76073 6.0568 8.76583 6.0119 8.76192 5.96733C8.74059 5.56733 8.61526 5.214 8.35859 4.954C8.10059 4.694 7.74926 4.56733 7.35059 4.546Z" fill="#6665CA" fill-opacity="0.8"/>
</svg>
