<svg width="47" height="35" viewBox="0 0 47 35" fill="none" xmlns="http://www.w3.org/2000/svg">
<path d="M25.4326 30.1084C25.0424 30.4989 25.0424 31.1317 25.4326 31.5222L28.2007 34.2922C28.5913 34.683 29.2248 34.683 29.6154 34.2922L45.4504 18.4466C45.8406 18.0561 45.8406 17.4233 45.4504 17.0328L29.1363 0.707817C28.7457 0.316977 28.1122 0.316977 27.7216 0.707817L24.9154 3.51592C24.5252 3.90639 24.5252 4.53919 24.9154 4.92966L24.939 4.95333C25.3296 5.34417 25.9631 5.34417 26.3537 4.95333L27.7216 3.58453C28.1122 3.19369 28.7457 3.19369 29.1363 3.58453L42.5756 17.0328C42.9658 17.4233 42.9658 18.0561 42.5756 18.4466L29.6154 31.4155C29.2248 31.8063 28.5913 31.8063 28.2007 31.4155L26.8709 30.0847C26.4803 29.6939 25.8468 29.6939 25.4562 30.0847L25.4326 30.1084Z" fill="white"/>
<rect width="11.184" height="4.74474" rx="1" transform="matrix(-0.70687 0.707343 0.70687 0.707343 31.6221 14.3836)" fill="#707070"/>
<rect width="11.184" height="4.74474" rx="1" transform="matrix(-0.70687 0.707343 0.70687 0.707343 22.2793 23.7329)" fill="white"/>
<rect width="17.6233" height="4.74474" rx="1" transform="matrix(-0.70687 0.707343 0.70687 0.707343 26.8311 9.58905)" fill="#707070"/>
<rect width="4.74474" height="4.74474" rx="1" transform="matrix(-0.70687 0.707343 0.70687 0.707343 12.9365 23.4932)" fill="white"/>
<rect width="11.184" height="4.74474" rx="1" transform="matrix(0.70687 -0.707343 0.70687 0.707343 4.79102 22.0548)" fill="#707070"/>
<rect width="11.184" height="4.74474" rx="1" transform="matrix(0.70687 -0.707343 0.70687 0.707343 14.1338 12.7055)" fill="white"/>
<rect width="17.6233" height="4.74474" rx="1" transform="matrix(0.70687 -0.707343 0.70687 0.707343 0 17.2603)" fill="white"/>
<rect width="4.74474" height="4.74474" rx="1" transform="matrix(0.70687 -0.707343 0.70687 0.707343 13.8945 3.35616)" fill="#707070"/>
</svg>
