<svg width="246" height="35" viewBox="0 0 246 35" fill="none" xmlns="http://www.w3.org/2000/svg">
<path d="M1.72 24.5V10.78H8.5C9.44667 10.78 10.2333 10.96 10.86 11.32C11.4867 11.6667 11.9533 12.1533 12.26 12.78C12.58 13.4067 12.74 14.1333 12.74 14.96C12.74 15.8 12.5667 16.5467 12.22 17.2C11.8733 17.84 11.38 18.34 10.74 18.7C10.1133 19.06 9.36 19.24 8.48 19.24H3.62V24.5H1.72ZM3.62 17.6H8.36C9.10667 17.6 9.7 17.3667 10.14 16.9C10.5933 16.4333 10.82 15.7933 10.82 14.98C10.82 14.4333 10.7267 13.9733 10.54 13.6C10.3533 13.2267 10.08 12.94 9.72 12.74C9.36 12.5267 8.90667 12.42 8.36 12.42H3.62V17.6ZM12.4447 24.5L17.8647 10.78H20.3647L25.8047 24.5H23.7447L22.4047 21.1H15.7247L14.4047 24.5H12.4447ZM16.3447 19.48H21.7647L20.1047 15.18C20.0647 15.06 20.0047 14.8933 19.9247 14.68C19.8447 14.4667 19.758 14.2333 19.6647 13.98C19.5714 13.7133 19.478 13.4467 19.3847 13.18C19.2914 12.9 19.2047 12.6467 19.1247 12.42H19.0047C18.9114 12.6867 18.8047 12.9933 18.6847 13.34C18.5647 13.6867 18.4447 14.0267 18.3247 14.36C18.2047 14.68 18.1047 14.9533 18.0247 15.18L16.3447 19.48ZM27.6575 24.5V10.78H34.8775C35.8108 10.78 36.5842 10.9533 37.1975 11.3C37.8242 11.6333 38.2908 12.1067 38.5975 12.72C38.9042 13.32 39.0575 14.0133 39.0575 14.8C39.0575 15.7467 38.8442 16.56 38.4175 17.24C37.9908 17.92 37.4042 18.4067 36.6575 18.7L39.5375 24.5H37.4575L34.7775 19.04H29.5575V24.5H27.6575ZM29.5575 17.42H34.6975C35.4575 17.42 36.0508 17.1867 36.4775 16.72C36.9175 16.2533 37.1375 15.6133 37.1375 14.8C37.1375 14.2933 37.0442 13.8667 36.8575 13.52C36.6708 13.1733 36.3975 12.9067 36.0375 12.72C35.6775 12.52 35.2308 12.42 34.6975 12.42H29.5575V17.42ZM42.1888 24.5V10.78H44.0888V18.04L51.0688 10.78H53.4288L48.2088 16.26L53.6088 24.5H51.3488L46.8888 17.62L44.0888 20.26V24.5H42.1888ZM55.4309 24.5V10.78H65.9909V12.42H57.3309V16.66H65.1109V18.3H57.3309V22.86H66.1109V24.5H55.4309ZM72.3261 24.5V12.44H67.6261V10.78H78.9661V12.44H74.2261V24.5H72.3261ZM81.095 24.5V10.78H82.935L89.595 19.82C89.6617 19.9 89.7483 20.02 89.855 20.18C89.9617 20.34 90.0683 20.5 90.175 20.66C90.2817 20.8067 90.3683 20.94 90.435 21.06H90.515C90.515 20.8467 90.515 20.64 90.515 20.44C90.515 20.2267 90.515 20.02 90.515 19.82V10.78H92.375V24.5H90.635L83.895 15.3C83.8017 15.1533 83.6617 14.9467 83.475 14.68C83.3017 14.4133 83.155 14.2 83.035 14.04H82.935C82.935 14.2533 82.935 14.4667 82.935 14.68C82.935 14.88 82.935 15.0867 82.935 15.3V24.5H81.095ZM95.8216 24.5V10.78H97.7216V24.5H95.8216Z" fill="white"/>
<path d="M132.433 30.1084C132.042 30.4989 132.042 31.1317 132.433 31.5222L135.201 34.2922C135.591 34.683 136.225 34.683 136.615 34.2922L152.45 18.4466C152.841 18.0561 152.841 17.4233 152.45 17.0328L136.136 0.707817C135.746 0.316977 135.112 0.316977 134.722 0.707817L131.915 3.51592C131.525 3.90639 131.525 4.53919 131.915 4.92966L131.939 4.95333C132.33 5.34417 132.963 5.34417 133.354 4.95333L134.722 3.58453C135.112 3.19369 135.746 3.19369 136.136 3.58453L149.576 17.0328C149.966 17.4233 149.966 18.0561 149.576 18.4466L136.615 31.4155C136.225 31.8063 135.591 31.8063 135.201 31.4155L133.871 30.0847C133.48 29.6939 132.847 29.6939 132.456 30.0847L132.433 30.1084Z" fill="white"/>
<rect width="11.184" height="4.74474" rx="1" transform="matrix(-0.70687 0.707343 0.70687 0.707343 138.622 14.3836)" fill="#707070"/>
<rect width="11.184" height="4.74474" rx="1" transform="matrix(-0.70687 0.707343 0.70687 0.707343 129.279 23.7329)" fill="white"/>
<rect width="17.6233" height="4.74474" rx="1" transform="matrix(-0.70687 0.707343 0.70687 0.707343 133.831 9.58905)" fill="#707070"/>
<rect width="4.74474" height="4.74474" rx="1" transform="matrix(-0.70687 0.707343 0.70687 0.707343 119.937 23.4932)" fill="white"/>
<rect width="11.184" height="4.74474" rx="1" transform="matrix(0.70687 -0.707343 0.70687 0.707343 111.791 22.0548)" fill="#707070"/>
<rect width="11.184" height="4.74474" rx="1" transform="matrix(0.70687 -0.707343 0.70687 0.707343 121.134 12.7055)" fill="white"/>
<rect width="17.6233" height="4.74474" rx="1" transform="matrix(0.70687 -0.707343 0.70687 0.707343 107 17.2603)" fill="white"/>
<rect width="4.74474" height="4.74474" rx="1" transform="matrix(0.70687 -0.707343 0.70687 0.707343 120.895 3.35616)" fill="#707070"/>
<path d="M161.877 24.5V10.78H169.097C170.031 10.78 170.804 10.9533 171.417 11.3C172.044 11.6333 172.511 12.1067 172.817 12.72C173.124 13.32 173.277 14.0133 173.277 14.8C173.277 15.7467 173.064 16.56 172.637 17.24C172.211 17.92 171.624 18.4067 170.877 18.7L173.757 24.5H171.677L168.997 19.04H163.777V24.5H161.877ZM163.777 17.42H168.917C169.677 17.42 170.271 17.1867 170.697 16.72C171.137 16.2533 171.357 15.6133 171.357 14.8C171.357 14.2933 171.264 13.8667 171.077 13.52C170.891 13.1733 170.617 12.9067 170.257 12.72C169.897 12.52 169.451 12.42 168.917 12.42H163.777V17.42ZM182.295 24.74C180.868 24.74 179.642 24.48 178.615 23.96C177.602 23.44 176.815 22.6533 176.255 21.6C175.708 20.5467 175.435 19.2267 175.435 17.64C175.435 16.04 175.708 14.72 176.255 13.68C176.815 12.6267 177.602 11.84 178.615 11.32C179.642 10.8 180.868 10.54 182.295 10.54C183.722 10.54 184.942 10.8 185.955 11.32C186.982 11.84 187.768 12.6267 188.315 13.68C188.875 14.72 189.155 16.04 189.155 17.64C189.155 19.2267 188.875 20.5467 188.315 21.6C187.768 22.6533 186.982 23.44 185.955 23.96C184.942 24.48 183.722 24.74 182.295 24.74ZM182.295 23.1C183.042 23.1 183.715 23 184.315 22.8C184.928 22.6 185.442 22.2867 185.855 21.86C186.282 21.42 186.608 20.8733 186.835 20.22C187.062 19.5533 187.175 18.7667 187.175 17.86V17.44C187.175 16.52 187.062 15.7333 186.835 15.08C186.608 14.4133 186.282 13.8667 185.855 13.44C185.442 13 184.928 12.68 184.315 12.48C183.715 12.28 183.042 12.18 182.295 12.18C181.535 12.18 180.855 12.28 180.255 12.48C179.655 12.68 179.142 13 178.715 13.44C178.288 13.8667 177.962 14.4133 177.735 15.08C177.522 15.7333 177.415 16.52 177.415 17.44V17.86C177.415 18.7667 177.522 19.5533 177.735 20.22C177.962 20.8733 178.288 21.42 178.715 21.86C179.142 22.2867 179.655 22.6 180.255 22.8C180.855 23 181.535 23.1 182.295 23.1ZM191.897 24.5V10.78H198.977C199.763 10.78 200.443 10.92 201.017 11.2C201.59 11.4667 202.03 11.8467 202.337 12.34C202.657 12.8333 202.817 13.42 202.817 14.1C202.817 14.62 202.723 15.1 202.537 15.54C202.35 15.98 202.09 16.3467 201.757 16.64C201.423 16.9333 201.043 17.1533 200.617 17.3V17.38C201.097 17.4867 201.53 17.68 201.917 17.96C202.303 18.24 202.61 18.6133 202.837 19.08C203.077 19.5333 203.197 20.0933 203.197 20.76C203.197 21.6533 203.01 22.3733 202.637 22.92C202.263 23.4667 201.763 23.8667 201.137 24.12C200.51 24.3733 199.79 24.5 198.977 24.5H191.897ZM193.797 22.86H198.957C199.637 22.86 200.19 22.6867 200.617 22.34C201.043 21.98 201.257 21.3867 201.257 20.56C201.257 20.0533 201.163 19.6333 200.977 19.3C200.79 18.9533 200.517 18.7 200.157 18.54C199.797 18.3667 199.343 18.28 198.797 18.28H193.797V22.86ZM193.797 16.66H198.617C199.07 16.66 199.463 16.5733 199.797 16.4C200.13 16.2133 200.39 15.96 200.577 15.64C200.777 15.3067 200.877 14.9333 200.877 14.52C200.877 13.8 200.683 13.2733 200.297 12.94C199.91 12.5933 199.397 12.42 198.757 12.42H193.797V16.66ZM212.022 24.74C210.595 24.74 209.368 24.48 208.342 23.96C207.328 23.44 206.542 22.6533 205.982 21.6C205.435 20.5467 205.162 19.2267 205.162 17.64C205.162 16.04 205.435 14.72 205.982 13.68C206.542 12.6267 207.328 11.84 208.342 11.32C209.368 10.8 210.595 10.54 212.022 10.54C213.448 10.54 214.668 10.8 215.682 11.32C216.708 11.84 217.495 12.6267 218.042 13.68C218.602 14.72 218.882 16.04 218.882 17.64C218.882 19.2267 218.602 20.5467 218.042 21.6C217.495 22.6533 216.708 23.44 215.682 23.96C214.668 24.48 213.448 24.74 212.022 24.74ZM212.022 23.1C212.768 23.1 213.442 23 214.042 22.8C214.655 22.6 215.168 22.2867 215.582 21.86C216.008 21.42 216.335 20.8733 216.562 20.22C216.788 19.5533 216.902 18.7667 216.902 17.86V17.44C216.902 16.52 216.788 15.7333 216.562 15.08C216.335 14.4133 216.008 13.8667 215.582 13.44C215.168 13 214.655 12.68 214.042 12.48C213.442 12.28 212.768 12.18 212.022 12.18C211.262 12.18 210.582 12.28 209.982 12.48C209.382 12.68 208.868 13 208.442 13.44C208.015 13.8667 207.688 14.4133 207.462 15.08C207.248 15.7333 207.142 16.52 207.142 17.44V17.86C207.142 18.7667 207.248 19.5533 207.462 20.22C207.688 20.8733 208.015 21.42 208.442 21.86C208.868 22.2867 209.382 22.6 209.982 22.8C210.582 23 211.262 23.1 212.022 23.1ZM224.515 24.5V12.44H219.815V10.78H231.155V12.44H226.415V24.5H224.515ZM236.773 24.5V18.8L231.373 10.78H233.553L237.733 17.12H237.833L241.993 10.78H244.073L238.693 18.8V24.5H236.773Z" fill="white"/>
</svg>
